<svg width="76" height="67" viewBox="0 0 76 67" fill="none" xmlns="http://www.w3.org/2000/svg">
<g clip-path="url(#clip0_55_32)">
<path d="M75.3942 66.0419C75.2613 66.2281 75.1273 66.4129 74.9945 66.5964C74.6128 66.8601 74.1601 67.0009 73.6967 67H2.30274C1.85996 67.0004 1.42657 66.872 1.05504 66.6304C0.931736 66.4673 0.809825 66.3028 0.686523 66.1384L0.809824 66.0704L36.9525 45.9732C37.2732 45.7952 37.6336 45.7016 38 45.7012C38.3665 45.7007 38.7271 45.7933 39.0483 45.9704L75.2722 65.9739L75.3942 66.0419Z" fill="#02316A"/>
<path d="M73.697 23.7831L42.3733 5.63594C41.0558 4.87267 39.5614 4.47048 38.04 4.46973C36.5186 4.46898 35.0238 4.86969 33.7056 5.63166L2.30303 23.7831C1.69249 23.7839 1.10721 24.0276 0.675497 24.4607C0.243782 24.8938 0.00086369 25.4809 0 26.0934V64.6898C0.000711342 65.3023 0.24358 65.8895 0.675328 66.3226C1.10708 66.7557 1.69245 66.9994 2.30303 67.0001H73.697C74.3075 66.9991 74.8926 66.7553 75.3243 66.3223C75.756 65.8892 75.999 65.3022 76 64.6898V26.0934C75.9991 25.4809 75.7562 24.8938 75.3245 24.4607C74.8928 24.0276 74.3075 23.7839 73.697 23.7831ZM75.7291 64.6898C75.7278 65.23 75.5132 65.7478 75.1324 66.1298C74.7516 66.5118 74.2355 66.727 73.697 66.7283H2.30303C1.76439 66.7273 1.24808 66.5122 0.8672 66.1301C0.48632 65.7481 0.271914 65.2301 0.270945 64.6898V26.0934C0.2716 25.553 0.485905 25.0348 0.866853 24.6527C1.2478 24.2705 1.76429 24.0555 2.30303 24.0549L33.7056 5.90346C35.0238 5.1415 36.5186 4.74078 38.04 4.74153C39.5614 4.74229 41.0558 5.14448 42.3733 5.90775L73.697 24.0549C74.2357 24.0555 74.7522 24.2705 75.1331 24.6527C75.5141 25.0348 75.7284 25.553 75.7291 26.0934V64.6898Z" fill="#3F3D56"/>
<path d="M38.0402 45.6197C37.8043 45.6205 37.5699 45.5811 37.3471 45.5031L37.3062 45.4885L37.2979 45.3972C37.2723 45.4098 37.2466 45.4219 37.2208 45.4333L37.1935 45.4453L37.1662 45.4332C37.1091 45.4081 37.0524 45.3796 36.9977 45.3487L12.0566 31.2891V2.58207C12.0574 1.91549 12.3217 1.27643 12.7915 0.805089C13.2614 0.333748 13.8984 0.0686193 14.5629 0.0678711H61.4363C62.1008 0.0686193 62.7378 0.333748 63.2077 0.805089C63.6775 1.27643 63.9418 1.91549 63.9426 2.58207V31.3258L63.908 31.3453L39.0827 45.3487C38.764 45.527 38.4051 45.6203 38.0402 45.6197Z" fill="white"/>
<path d="M38.0406 45.6878C37.797 45.6886 37.555 45.6479 37.325 45.5673L37.243 45.5383L37.2395 45.4995L37.1938 45.5196L37.1393 45.4955C37.0802 45.4695 37.0215 45.44 36.9649 45.4079L11.9893 31.329V2.58215C11.99 1.89756 12.2615 1.24123 12.744 0.757151C13.2266 0.273072 13.8808 0.000774793 14.5632 0H61.4367C62.1191 0.000777665 62.7733 0.273074 63.2559 0.757153C63.7384 1.24123 64.0099 1.89756 64.0107 2.58215V31.3656L39.1162 45.408C38.7874 45.592 38.4171 45.6883 38.0406 45.6878ZM37.4969 45.3376C37.9949 45.4811 38.5293 45.4212 38.9836 45.171L63.7397 31.2066V2.58215C63.739 1.96962 63.4962 1.38238 63.0644 0.949251C62.6326 0.516127 62.0473 0.272495 61.4367 0.271805H14.5632C13.9526 0.272492 13.3673 0.516124 12.9355 0.949249C12.5037 1.38237 12.2609 1.96962 12.2602 2.58215V31.1699L13.8845 32.085L37.0977 45.1711C37.1293 45.189 37.1614 45.2057 37.1939 45.2215C37.2265 45.2057 37.2585 45.189 37.29 45.1712L37.4724 45.0681L37.4969 45.3376Z" fill="#3F3D56"/>
<path d="M75.4 24.7858L65.5687 30.3306L63.8753 31.286L39.05 45.2894C38.7415 45.462 38.394 45.5523 38.0407 45.5517C37.8125 45.5524 37.5857 45.5142 37.3702 45.4389C37.3102 45.4197 37.2514 45.397 37.194 45.3709C37.1385 45.3465 37.0844 45.3193 37.0315 45.2894L13.8183 32.2033L12.1249 31.2493L0.620601 24.764C0.589319 24.746 0.566373 24.7164 0.556739 24.6815C0.547104 24.6467 0.551558 24.6094 0.569137 24.5778C0.586764 24.5465 0.616065 24.5235 0.650604 24.5138C0.685142 24.5041 0.722098 24.5086 0.753361 24.5262L12.1249 30.9367L13.8183 31.8908L37.1643 45.0516C37.2417 45.0952 37.3223 45.1329 37.4054 45.1644C37.4406 45.178 37.4772 45.1902 37.5138 45.2011C37.7457 45.2725 37.9896 45.296 38.2308 45.2703C38.472 45.2446 38.7055 45.1702 38.9173 45.0516L63.8753 30.9748L65.5687 30.0194L75.2672 24.5493C75.2827 24.5406 75.2997 24.535 75.3174 24.5328C75.335 24.5307 75.3529 24.5321 75.37 24.5369C75.3871 24.5416 75.4031 24.5498 75.4171 24.5608C75.431 24.5718 75.4427 24.5854 75.4514 24.6009C75.4602 24.6165 75.4657 24.6336 75.4679 24.6513C75.47 24.669 75.4686 24.6869 75.4639 24.7041C75.4591 24.7212 75.451 24.7373 75.44 24.7513C75.429 24.7653 75.4154 24.777 75.4 24.7858Z" fill="#3F3D56"/>
<path d="M22.2276 8.96936H18.4344C18.1469 8.96936 17.8713 8.85482 17.668 8.65093C17.4648 8.44703 17.3506 8.17049 17.3506 7.88214C17.3506 7.59379 17.4648 7.31725 17.668 7.11336C17.8713 6.90947 18.1469 6.79492 18.4344 6.79492H22.2276C22.515 6.79492 22.7907 6.90947 22.9939 7.11336C23.1972 7.31725 23.3114 7.59379 23.3114 7.88214C23.3114 8.17049 23.1972 8.44703 22.9939 8.65093C22.7907 8.85482 22.515 8.96936 22.2276 8.96936Z" fill="#02316A"/>
<path d="M26.6982 12.6388H18.4344C18.1469 12.6388 17.8713 12.5243 17.668 12.3204C17.4648 12.1165 17.3506 11.8399 17.3506 11.5516C17.3506 11.2632 17.4648 10.9867 17.668 10.7828C17.8713 10.5789 18.1469 10.4644 18.4344 10.4644H26.6982C26.9856 10.4644 27.2613 10.5789 27.4645 10.7828C27.6678 10.9867 27.782 11.2632 27.782 11.5516C27.782 11.8399 27.6678 12.1165 27.4645 12.3204C27.2613 12.5243 26.9856 12.6388 26.6982 12.6388Z" fill="#E6E6E6"/>
<path d="M49.7861 22.424H26.3494C26.062 22.424 25.7863 22.3094 25.5831 22.1055C25.3798 21.9016 25.2656 21.6251 25.2656 21.3367C25.2656 21.0484 25.3798 20.7718 25.5831 20.568C25.7863 20.3641 26.062 20.2495 26.3494 20.2495H49.7861C50.0736 20.2495 50.3492 20.3641 50.5525 20.568C50.7557 20.7718 50.8699 21.0484 50.8699 21.3367C50.8699 21.6251 50.7557 21.9016 50.5525 22.1055C50.3492 22.3094 50.0736 22.424 49.7861 22.424Z" fill="#02316A"/>
<path d="M51.954 26.6368H24.0467C23.7592 26.6368 23.4836 26.5223 23.2803 26.3184C23.0771 26.1145 22.9629 25.838 22.9629 25.5496C22.9629 25.2613 23.0771 24.9847 23.2803 24.7808C23.4836 24.5769 23.7592 24.4624 24.0467 24.4624H51.954C52.2414 24.4624 52.5171 24.5769 52.7203 24.7808C52.9236 24.9847 53.0378 25.2613 53.0378 25.5496C53.0378 25.838 52.9236 26.1145 52.7203 26.3184C52.5171 26.5223 52.2414 26.6368 51.954 26.6368Z" fill="#E6E6E6"/>
<path d="M51.954 30.714H24.0467C23.7592 30.714 23.4836 30.5994 23.2803 30.3956C23.0771 30.1917 22.9629 29.9151 22.9629 29.6268C22.9629 29.3384 23.0771 29.0619 23.2803 28.858C23.4836 28.6541 23.7592 28.5396 24.0467 28.5396H51.954C52.2414 28.5396 52.5171 28.6541 52.7203 28.858C52.9236 29.0619 53.0378 29.3384 53.0378 29.6268C53.0378 29.9151 52.9236 30.1917 52.7203 30.3956C52.5171 30.5994 52.2414 30.714 51.954 30.714Z" fill="#E6E6E6"/>
</g>
<defs>
<clipPath id="clip0_55_32">
<rect width="76" height="67" fill="white"/>
</clipPath>
</defs>
</svg>
