<svg width="145" height="42" viewBox="0 0 145 42" fill="none" xmlns="http://www.w3.org/2000/svg">
<g clip-path="url(#clip0_55_45)">
<path d="M90.0113 39.807C89.0397 39.8061 88.1081 39.2963 87.4213 38.3896C86.7345 37.483 86.3488 36.2537 86.3488 34.9719C86.3488 33.6901 86.7345 32.4608 87.4213 31.5541C88.1081 30.6475 89.0397 30.1377 90.0113 30.1368H144.45C144.177 29.4737 143.772 28.9201 143.28 28.5342C142.788 28.1483 142.227 27.9444 141.654 27.9438H33.4437C32.0319 27.9459 30.6785 28.6873 29.6808 30.0051C28.6832 31.323 28.1229 33.1094 28.123 34.9719C28.1238 36.834 28.6843 38.6198 29.6818 39.9373C30.6793 41.2549 32.0322 41.9967 33.4437 41.9999H141.654C142.227 41.9994 142.788 41.7954 143.28 41.4096C143.772 41.0237 144.177 40.4701 144.45 39.807L90.0113 39.807Z" fill="#CCCCCC"/>
<path d="M144.523 32.8011H92.7643C92.6851 32.8009 92.6091 32.7592 92.5532 32.6852C92.4972 32.6112 92.4658 32.5109 92.4658 32.4064C92.4658 32.3019 92.4972 32.2017 92.5532 32.1277C92.6091 32.0537 92.6851 32.012 92.7643 32.0117H144.523C144.603 32.012 144.678 32.0537 144.734 32.1277C144.79 32.2017 144.822 32.3019 144.822 32.4064C144.822 32.5109 144.79 32.6112 144.734 32.6852C144.678 32.7592 144.603 32.8009 144.523 32.8011Z" fill="#CCCCCC"/>
<path d="M144.523 35.3666H92.764C92.6847 35.3666 92.6086 35.325 92.5525 35.251C92.4964 35.1769 92.4648 35.0765 92.4648 34.9718C92.4648 34.8672 92.4964 34.7668 92.5525 34.6927C92.6086 34.6187 92.6847 34.5771 92.764 34.5771H144.523C144.602 34.5771 144.678 34.6187 144.735 34.6927C144.791 34.7668 144.822 34.8672 144.822 34.9718C144.822 35.0765 144.791 35.1769 144.735 35.251C144.678 35.325 144.602 35.3666 144.523 35.3666Z" fill="#CCCCCC"/>
<path d="M144.523 37.932H92.7643C92.6851 37.9317 92.6091 37.89 92.5532 37.816C92.4972 37.7421 92.4658 37.6418 92.4658 37.5373C92.4658 37.4328 92.4972 37.3325 92.5532 37.2585C92.6091 37.1845 92.6851 37.1428 92.7643 37.1426H144.523C144.603 37.1428 144.678 37.1845 144.734 37.2585C144.79 37.3325 144.822 37.4328 144.822 37.5373C144.822 37.6418 144.79 37.7421 144.734 37.816C144.678 37.89 144.603 37.9317 144.523 37.932Z" fill="#CCCCCC"/>
<path d="M75.9497 26.1898C74.9782 26.1889 74.0466 25.6791 73.3598 24.7725C72.673 23.8658 72.2872 22.6365 72.2872 21.3547C72.2872 20.0729 72.673 18.8436 73.3598 17.9369C74.0466 17.0303 74.9782 16.5205 75.9497 16.5196H130.389C130.115 15.8565 129.711 15.3029 129.219 14.917C128.727 14.5312 128.165 14.3272 127.593 14.3267H19.3822C17.9705 14.3288 16.617 15.0702 15.6194 16.388C14.6217 17.7058 14.0614 19.4922 14.0615 21.3547C14.0623 23.2169 14.6229 25.0026 15.6203 26.3202C16.6178 27.6377 17.9707 28.3795 19.3822 28.3827H127.593C128.165 28.3822 128.727 28.1782 129.219 27.7924C129.711 27.4065 130.115 26.8529 130.389 26.1898L75.9497 26.1898Z" fill="#02316A"/>
<path d="M130.462 19.1839H78.7028C78.6235 19.1837 78.5476 19.142 78.4917 19.068C78.4357 18.994 78.4043 18.8937 78.4043 18.7892C78.4043 18.6847 78.4357 18.5845 78.4917 18.5105C78.5476 18.4365 78.6235 18.3948 78.7028 18.3945H130.462C130.541 18.3945 130.617 18.4361 130.673 18.5101C130.729 18.5842 130.761 18.6845 130.761 18.7892C130.761 18.8939 130.729 18.9943 130.673 19.0683C130.617 19.1423 130.541 19.1839 130.462 19.1839Z" fill="#CCCCCC"/>
<path d="M130.462 21.7494H78.7025C78.6232 21.7494 78.5471 21.7078 78.491 21.6337C78.4348 21.5597 78.4033 21.4593 78.4033 21.3547C78.4033 21.25 78.4348 21.1496 78.491 21.0756C78.5471 21.0015 78.6232 20.96 78.7025 20.96H130.462C130.541 20.96 130.617 21.0015 130.673 21.0756C130.729 21.1496 130.761 21.25 130.761 21.3547C130.761 21.4593 130.729 21.5597 130.673 21.6337C130.617 21.7078 130.541 21.7494 130.462 21.7494Z" fill="#CCCCCC"/>
<path d="M130.462 24.3148H78.7028C78.6235 24.3145 78.5476 24.2729 78.4917 24.1989C78.4357 24.1249 78.4043 24.0246 78.4043 23.9201C78.4043 23.8156 78.4357 23.7153 78.4917 23.6413C78.5476 23.5673 78.6235 23.5256 78.7028 23.5254H130.462C130.501 23.5253 130.54 23.5354 130.576 23.5552C130.613 23.5749 130.646 23.604 130.674 23.6407C130.702 23.6773 130.724 23.7209 130.739 23.7688C130.754 23.8168 130.762 23.8682 130.762 23.9201C130.762 23.972 130.754 24.0234 130.739 24.0714C130.724 24.1193 130.702 24.1629 130.674 24.1995C130.646 24.2362 130.613 24.2652 130.576 24.285C130.54 24.3048 130.501 24.3149 130.462 24.3148Z" fill="#CCCCCC"/>
<path d="M61.8882 12.1181C60.9166 12.1172 59.9851 11.6074 59.2983 10.7007C58.6115 9.79405 58.2257 8.56473 58.2257 7.28295C58.2257 6.00117 58.6115 4.77184 59.2983 3.86517C59.9851 2.95851 60.9166 2.44871 61.8882 2.44783H116.327C116.054 1.78472 115.649 1.23115 115.157 0.845275C114.665 0.459397 114.104 0.255458 113.531 0.254883H5.32062C3.90884 0.256973 2.55544 0.998379 1.55778 2.31619C0.560122 3.634 -0.000175653 5.42042 4.13074e-08 7.28292C0.000714305 9.14507 0.561297 10.9308 1.55876 12.2484C2.55623 13.5659 3.90911 14.3077 5.32062 14.311H113.531C114.104 14.3104 114.665 14.1065 115.157 13.7206C115.649 13.3347 116.054 12.7812 116.327 12.1181L61.8882 12.1181Z" fill="#CCCCCC"/>
<path d="M116.399 5.11216H64.6403C64.561 5.11191 64.4851 5.07022 64.4292 4.99623C64.3732 4.92224 64.3418 4.82198 64.3418 4.71746C64.3418 4.61294 64.3732 4.51269 64.4292 4.43869C64.4851 4.3647 64.561 4.323 64.6403 4.32275H116.399C116.479 4.32275 116.555 4.36434 116.611 4.43836C116.667 4.51238 116.698 4.61278 116.698 4.71746C116.698 4.82214 116.667 4.92254 116.611 4.99656C116.555 5.07058 116.479 5.11216 116.399 5.11216Z" fill="#CCCCCC"/>
<path d="M116.4 7.67759H64.641C64.6017 7.67759 64.5628 7.66739 64.5265 7.64755C64.4902 7.62772 64.4572 7.59864 64.4294 7.56199C64.4016 7.52533 64.3796 7.48182 64.3646 7.43393C64.3495 7.38605 64.3418 7.33473 64.3418 7.28289C64.3418 7.23106 64.3495 7.17972 64.3646 7.13184C64.3796 7.08395 64.4016 7.04045 64.4294 7.0038C64.4572 6.96715 64.4902 6.93807 64.5265 6.91823C64.5628 6.8984 64.6017 6.88818 64.641 6.88818H116.4C116.439 6.88818 116.478 6.8984 116.514 6.91823C116.551 6.93807 116.584 6.96715 116.612 7.0038C116.639 7.04045 116.661 7.08395 116.676 7.13184C116.691 7.17972 116.699 7.23106 116.699 7.28289C116.699 7.33473 116.691 7.38605 116.676 7.43393C116.661 7.48182 116.639 7.52533 116.612 7.56199C116.584 7.59864 116.551 7.62772 116.514 7.64755C116.478 7.66739 116.439 7.67759 116.4 7.67759Z" fill="#CCCCCC"/>
<path d="M116.4 10.2435H64.641C64.5616 10.2435 64.4855 10.2019 64.4294 10.1279C64.3733 10.0539 64.3418 9.95348 64.3418 9.8488C64.3418 9.74411 64.3733 9.64372 64.4294 9.5697C64.4855 9.49568 64.5616 9.4541 64.641 9.4541H116.4C116.439 9.4541 116.478 9.4643 116.514 9.48414C116.551 9.50397 116.584 9.53305 116.612 9.5697C116.639 9.60635 116.661 9.64987 116.676 9.69775C116.691 9.74564 116.699 9.79696 116.699 9.8488C116.699 9.90063 116.691 9.95196 116.676 9.99985C116.661 10.0477 116.639 10.0912 116.612 10.1279C116.584 10.1645 116.551 10.1936 116.514 10.2135C116.478 10.2333 116.439 10.2435 116.4 10.2435Z" fill="#CCCCCC"/>
</g>
<defs>
<clipPath id="clip0_55_45">
<rect width="145" height="42" fill="white"/>
</clipPath>
</defs>
</svg>
