<svg width="86" height="51" viewBox="0 0 86 51" fill="none" xmlns="http://www.w3.org/2000/svg">
<g clip-path="url(#clip0_55_67)">
<path d="M5.25763 0.721191C4.606 0.721926 3.98127 0.980383 3.5205 1.43986C3.05973 1.89934 2.80054 2.52231 2.7998 3.17211V47.9572C2.80054 48.607 3.05973 49.2299 3.5205 49.6894C3.98127 50.1489 4.606 50.4074 5.25763 50.4081H6.37482C7.02645 50.4074 7.65118 50.1489 8.11195 49.6894C8.57272 49.2299 8.83191 48.607 8.83264 47.9572V3.17211C8.83191 2.52231 8.57272 1.89934 8.11195 1.43986C7.65118 0.980383 7.02645 0.721926 6.37482 0.721191H5.25763Z" fill="#E6E6E6"/>
<path d="M5.25704 1.72412C4.87199 1.72457 4.50283 1.87729 4.23056 2.1488C3.95829 2.42031 3.80513 2.78842 3.80469 3.17239V47.9574C3.80513 48.3414 3.95829 48.7095 4.23056 48.981C4.50283 49.2525 4.87199 49.4053 5.25704 49.4057H6.37423C6.75928 49.4053 7.12843 49.2525 7.4007 48.981C7.67298 48.7095 7.82613 48.3414 7.82658 47.9574V3.17239C7.82613 2.78842 7.67298 2.42031 7.4007 2.1488C7.12843 1.87729 6.75928 1.72457 6.37423 1.72412H5.25704Z" fill="white"/>
<path d="M23.5789 0.721191C22.9273 0.721926 22.3026 0.980383 21.8418 1.43986C21.381 1.89934 21.1218 2.52231 21.1211 3.17211V47.9572C21.1218 48.607 21.381 49.2299 21.8418 49.6894C22.3026 50.1489 22.9273 50.4074 23.5789 50.4081H24.6961C25.3477 50.4074 25.9725 50.1489 26.4332 49.6894C26.894 49.2299 27.1532 48.607 27.1539 47.9572V3.17211C27.1532 2.52231 26.894 1.89934 26.4332 1.43986C25.9725 0.980383 25.3477 0.721926 24.6961 0.721191H23.5789Z" fill="#E6E6E6"/>
<path d="M23.5793 1.72412C23.1943 1.72457 22.8251 1.87729 22.5528 2.1488C22.2806 2.42031 22.1274 2.78842 22.127 3.17239V47.9574C22.1274 48.3414 22.2806 48.7095 22.5528 48.981C22.8251 49.2525 23.1943 49.4053 23.5793 49.4057H24.6965C25.0815 49.4053 25.4507 49.2525 25.723 48.981C25.9952 48.7095 26.1484 48.3414 26.1488 47.9574V3.17239C26.1484 2.78842 25.9952 2.42031 25.723 2.1488C25.4507 1.87729 25.0815 1.72457 24.6965 1.72412H23.5793Z" fill="white"/>
<path d="M41.9012 0.721191C41.2496 0.721926 40.6248 0.980383 40.1641 1.43986C39.7033 1.89934 39.4441 2.52231 39.4434 3.17211V47.9572C39.4441 48.607 39.7033 49.2299 40.1641 49.6894C40.6248 50.1489 41.2496 50.4074 41.9012 50.4081H43.0184C43.67 50.4074 44.2947 50.1489 44.7555 49.6894C45.2163 49.2299 45.4755 48.607 45.4762 47.9572V3.17211C45.4755 2.52231 45.2163 1.89934 44.7555 1.43986C44.2947 0.980383 43.67 0.721926 43.0184 0.721191H41.9012Z" fill="#E6E6E6"/>
<path d="M41.9016 1.72412C41.5165 1.72457 41.1474 1.87729 40.8751 2.1488C40.6028 2.42031 40.4497 2.78842 40.4492 3.17239V47.9574C40.4497 48.3414 40.6028 48.7095 40.8751 48.981C41.1474 49.2525 41.5165 49.4053 41.9016 49.4057H43.0188C43.4038 49.4053 43.773 49.2525 44.0452 48.981C44.3175 48.7095 44.4707 48.3414 44.4711 47.9574V3.17239C44.4707 2.78842 44.3175 2.42031 44.0452 2.1488C43.773 1.87729 43.4038 1.72457 43.0188 1.72412H41.9016Z" fill="white"/>
<path d="M60.2234 0.721191C59.5718 0.721926 58.9471 0.980383 58.4863 1.43986C58.0255 1.89934 57.7664 2.52231 57.7656 3.17211V47.9572C57.7664 48.607 58.0255 49.2299 58.4863 49.6894C58.9471 50.1489 59.5718 50.4074 60.2234 50.4081H61.3406C61.9923 50.4074 62.617 50.1489 63.0778 49.6894C63.5385 49.2299 63.7977 48.607 63.7985 47.9572V3.17211C63.7977 2.52231 63.5385 1.89934 63.0778 1.43986C62.617 0.980383 61.9923 0.721926 61.3406 0.721191H60.2234Z" fill="#E6E6E6"/>
<path d="M60.2229 1.72412C59.8378 1.72457 59.4687 1.87729 59.1964 2.1488C58.9241 2.42031 58.771 2.78842 58.7705 3.17239V47.9574C58.771 48.3414 58.9241 48.7095 59.1964 48.981C59.4687 49.2525 59.8378 49.4053 60.2229 49.4057H61.34C61.7251 49.4053 62.0943 49.2525 62.3665 48.981C62.6388 48.7095 62.792 48.3414 62.7924 47.9574V3.17239C62.792 2.78842 62.6388 2.42031 62.3665 2.1488C62.0943 1.87729 61.7251 1.72457 61.34 1.72412H60.2229Z" fill="white"/>
<path d="M78.5447 0.721191C77.8931 0.721926 77.2684 0.980383 76.8076 1.43986C76.3468 1.89934 76.0877 2.52231 76.0869 3.17211V47.9572C76.0877 48.607 76.3468 49.2299 76.8076 49.6894C77.2684 50.1489 77.8931 50.4074 78.5447 50.4081H79.6619C80.3136 50.4074 80.9383 50.1489 81.3991 49.6894C81.8598 49.2299 82.119 48.607 82.1198 47.9572V3.17211C82.119 2.52231 81.8598 1.89934 81.3991 1.43986C80.9383 0.980383 80.3136 0.721926 79.6619 0.721191H78.5447Z" fill="#E6E6E6"/>
<path d="M78.5451 1.72412C78.1601 1.72457 77.7909 1.87729 77.5186 2.1488C77.2464 2.42031 77.0932 2.78842 77.0928 3.17239V47.9574C77.0932 48.3414 77.2464 48.7095 77.5186 48.981C77.7909 49.2525 78.1601 49.4053 78.5451 49.4057H79.6623C80.0474 49.4053 80.4165 49.2525 80.6888 48.981C80.9611 48.7095 81.1142 48.3414 81.1147 47.9574V3.17239C81.1142 2.78842 80.9611 2.42031 80.6888 2.1488C80.4165 1.87729 80.0474 1.72457 79.6623 1.72412H78.5451Z" fill="white"/>
<path d="M9.44841 15.2108H2.40671C1.79995 15.2101 1.21824 14.9694 0.789202 14.5416C0.360161 14.1138 0.118836 13.5337 0.118164 12.9286V12.5775C0.118836 11.9725 0.360161 11.3924 0.789202 10.9646C1.21824 10.5367 1.79996 10.2961 2.40671 10.2954H9.44841C10.0552 10.2961 10.6369 10.5367 11.0659 10.9646C11.495 11.3924 11.7363 11.9725 11.737 12.5775V12.9286C11.7363 13.5337 11.495 14.1138 11.0659 14.5416C10.6369 14.9694 10.0552 15.2101 9.44841 15.2108Z" fill="#02316A"/>
<path d="M28.217 22.5638H21.1753C20.5685 22.5631 19.9868 22.3225 19.5578 21.8946C19.1287 21.4668 18.8874 20.8867 18.8867 20.2817V19.9306C18.8874 19.3255 19.1287 18.7454 19.5578 18.3176C19.9868 17.8898 20.5685 17.6491 21.1753 17.6484H28.217C28.8237 17.6491 29.4054 17.8898 29.8345 18.3176C30.2635 18.7454 30.5048 19.3255 30.5055 19.9306V20.2817C30.5048 20.8867 30.2635 21.4668 29.8345 21.8946C29.4054 22.3225 28.8237 22.5631 28.217 22.5638Z" fill="#02316A"/>
<path d="M46.092 37.0462H39.0503C38.4435 37.0455 37.8618 36.8049 37.4328 36.377C37.0037 35.9492 36.7624 35.3691 36.7617 34.7641V34.413C36.7624 33.8079 37.0037 33.2279 37.4328 32.8C37.8618 32.3722 38.4435 32.1315 39.0503 32.1309H46.092C46.6987 32.1315 47.2804 32.3722 47.7095 32.8C48.1385 33.2279 48.3798 33.8079 48.3805 34.413V34.7641C48.3798 35.3691 48.1385 35.9492 47.7095 36.377C47.2804 36.8049 46.6987 37.0455 46.092 37.0462Z" fill="#02316A"/>
<path d="M64.4142 10.7547H57.3725C56.7658 10.754 56.1841 10.5134 55.755 10.0855C55.326 9.65771 55.0847 9.07763 55.084 8.47258V8.12148C55.0847 7.51643 55.326 6.93635 55.755 6.50852C56.1841 6.08068 56.7658 5.84003 57.3725 5.83936H64.4142C65.021 5.84003 65.6027 6.08068 66.0317 6.50851C66.4608 6.93635 66.7021 7.51643 66.7028 8.12148V8.47258C66.7021 9.07763 66.4608 9.65771 66.0317 10.0855C65.6027 10.5134 65.021 10.754 64.4142 10.7547Z" fill="#02316A"/>
<path d="M82.7365 28.1341H75.6948C75.088 28.1334 74.5063 27.8928 74.0773 27.4649C73.6483 27.0371 73.4069 26.457 73.4062 25.852V25.5009C73.4069 24.8958 73.6483 24.3157 74.0773 23.8879C74.5063 23.4601 75.088 23.2194 75.6948 23.2188H82.7365C83.3432 23.2194 83.925 23.4601 84.354 23.8879C84.783 24.3157 85.0244 24.8958 85.025 25.5009V25.852C85.0244 26.457 84.783 27.0371 84.354 27.4649C83.925 27.8928 83.3432 28.1334 82.7365 28.1341Z" fill="#02316A"/>
</g>
<defs>
<clipPath id="clip0_55_67">
<rect width="86" height="51" fill="white"/>
</clipPath>
</defs>
</svg>
